:SAMPLES-PER-SECOND 30
:FULLY-SPECIFIED
:DEGREES
410
root  -6.66817 38.5101 8.4462 -157.932 -79.1087 148.668
RightUpLeg  -11.3813 -10.7232 -2.36377
RightLeg  2.4086 -31.1102 5.83532
RightFoot  6.19913 2.30374 -14.6399
RightToes  -5.8209e-011 0 -3.6325e-017
Spine  4.0393 -3.0664 -6.64431
Spine1  6.578 -5.05963 6.75551
HEad  -6.11167 -10.757 -0.665842
LeftShoulder1  0.133431 3.13558 -30.1088
LeftArm  8.21965 -14.972 -48.3226
LeftForeArm  10.0377 -23.6684 -4.53131
LeftHand  -0.0407442 5.0642 7.04904
RightShoulder  -0.720092 -5.64897 26.9154
RightArm  20.2452 -5.66833 46.15
RightForeArm  3.54581 18.8723 5.11842
RightHand  -0.322636 3.11989 -4.64391
LeftUpLeg  19.329 8.60108 -7.71949
LeftLeg  10.0104 10.524 -0.254693
LeftFoot  -17.8761 0.219507 2.03558
LeftToes  8.00323e-011 7.86695e-011 -1.03868e-010
411
root  -8.04213 38.3772 8.36479 -169.973 -77.807 160.701
RightUpLeg  -13.4179 -12.2326 0.0155905
RightLeg  11.343 -28.2351 1.46249
RightFoot  3.88855 2.29821 -16.7538
RightToes  -5.8209e-011 0 -3.6325e-017
Spine  2.73226 -3.19553 -2.86979
Spine1  7.59498 -4.97141 6.30021
HEad  -6.31332 -11.236 -0.665249
LeftShoulder1  0.0560713 3.35191 -31.0528
LeftArm  8.47691 -12.8706 -47.4841
LeftForeArm  11.9153 -25.0467 -4.72553
LeftHand  -0.0404255 5.03821 6.31928
RightShoulder  -0.753287 -5.71295 27.453
RightArm  16.9697 -5.72805 45.1043
RightForeArm  5.55995 15.7052 5.65721
RightHand  -0.322126 2.43408 -4.9768
LeftUpLeg  20.5221 13.3442 -4.04287
LeftLeg  13.5587 5.91982 0.596163
LeftFoot  -19.161 -0.00151426 -1.67272
LeftToes  8.00323e-011 7.86695e-011 -1.03868e-010
412
root  -9.39614 38.3287 8.27505 176.899 -75.2336 174.352
RightUpLeg  -14.2957 -17.8716 4.45914
RightLeg  16.4995 -19.6899 -1.16088
RightFoot  0.887562 1.60621 -14.8649
RightToes  -5.8209e-011 0 -3.6325e-017
Spine  1.75935 -3.02556 2.12329
Spine1  7.58767 -4.4879 5.58207
HEad  -5.55166 -11.5166 -1.03421
LeftShoulder1  -0.0674714 3.68073 -32.1164
LeftArm  10.9071 -10.4022 -46.889
LeftForeArm  11.806 -24.3686 -4.60025
LeftHand  -0.0545738 4.73983 6.87099
RightShoulder  -0.799141 -5.82941 27.7407
RightArm  13.1727 -5.49817 43.8382
RightForeArm  8.22454 11.6283 6.09827
RightHand  -0.266937 2.40235 -4.18986
LeftUpLeg  19.7331 17.8495 0.448209
LeftLeg  20.1586 1.86845 1.20227
LeftFoot  -18.8891 -0.338116 -6.83148
LeftToes  8.00323e-011 7.86695e-011 -1.03868e-010
413
root  -10.5586 38.2807 8.06709 172.418 -72.8881 -179.945
RightUpLeg  -15.1637 -18.0258 7.03897
RightLeg  19.3929 -17.3259 -2.7833
RightFoot  -1.14491 1.2792 -14.3291
RightToes  -5.8209e-011 0 -3.6325e-017
Spine  0.774277 -3.09726 3.45545
Spine1  6.98895 -4.76028 7.74732
HEad  -3.84048 -11.6249 -1.51013
LeftShoulder1  -0.119814 3.81775 -32.1988
LeftArm  13.1037 -6.75906 -47.3361
LeftForeArm  11.4738 -21.7303 -4.71298
LeftHand  0.0152658 6.00014 7.3162
RightShoulder  -0.755684 -5.72338 27.4
RightArm  10.715 -5.99292 42.9199
RightForeArm  8.73345 8.28632 5.968
RightHand  -0.244765 1.57987 -4.20514
LeftUpLeg  15.3147 19.3238 3.30783
LeftLeg  30.6133 -0.453801 0.0647401
LeftFoot  -15.2101 -0.303889 -12.9588
LeftToes  8.00323e-011 7.86695e-011 -1.03868e-010
414
root  -11.5606 38.2934 7.83815 170.943 -71.0909 -177.962
RightUpLeg  -14.5281 -15.5462 7.46854
RightLeg  21.1011 -18.0791 -3.31457
RightFoot  -3.05215 0.97486 -13.6567
RightToes  -5.8209e-011 0 -3.6325e-017
Spine  1.48339 -3.67399 3.44365
Spine1  5.56468 -5.30613 9.51097
HEad  -2.6407 -11.7397 -0.607268
LeftShoulder1  -0.142035 3.88644 -31.0008
LeftArm  11.3676 -3.11401 -47.8731
LeftForeArm  14.8411 -18.0502 -6.37213
LeftHand  -0.0129512 5.7386 5.16253
RightShoulder  -0.845402 -5.95008 27.9671
RightArm  9.87781 -6.43531 42.0135
RightForeArm  8.69018 6.96742 5.58436
RightHand  -0.185272 1.17174 -3.40484
LeftUpLeg  9.52499 19.0528 4.79671
LeftLeg  42.0722 -1.44301 -0.990862
LeftFoot  -5.45168 0.887426 -17.3592
LeftToes  8.00323e-011 7.86695e-011 -1.03868e-010
415
root  -12.4988 38.3348 7.69585 168.55 -68.6359 -175.397
RightUpLeg  -12.9781 -13.4304 7.94045
RightLeg  21.6518 -18.1438 -2.80939
RightFoot  -4.37898 0.765426 -13.0008
RightToes  -5.8209e-011 0 -3.6325e-017
Spine  2.52993 -3.85806 4.36599
Spine1  4.70467 -5.4647 10.8174
HEad  -2.95502 -12.7733 0.435737
LeftShoulder1  -0.0829942 3.72379 -31.4161
LeftArm  8.12638 -1.29119 -46.8698
LeftForeArm  20.4396 -13.8445 -8.71789
LeftHand  0.0138023 7.06647 3.16483
RightShoulder  -0.897563 -6.11415 27.8032
RightArm  8.86035 -7.39194 41.5535
RightForeArm  6.64755 7.86311 5.21514
RightHand  -0.266303 1.18651 -4.837
LeftUpLeg  3.42567 18.0072 6.06892
LeftLeg  52.4352 -1.81451 -2.09438
LeftFoot  6.55897 2.29916 -14.9428
LeftToes  8.00323e-011 7.86695e-011 -1.03868e-010
416
root  -13.424 38.3696 7.57329 168.523 -64.9436 -175.067
RightUpLeg  -12.0392 -11.7609 8.54405
RightLeg  22.4797 -16.3466 -2.73485
RightFoot  -5.61221 0.594683 -12.5751
RightToes  -5.8209e-011 0 -3.6325e-017
Spine  2.59141 -3.79424 5.47499
Spine1  5.20257 -5.2319 10.8159
HEad  -3.8493 -13.3602 1.20386
LeftShoulder1  -0.215255 4.07022 -31.9098
LeftArm  5.44752 -0.0107747 -45.3713
LeftForeArm  26.5414 -9.94448 -10.4186
LeftHand  -0.0241273 7.64156 0.937401
RightShoulder  -0.941131 -6.21899 28.098
RightArm  9.43388 -7.47936 41.0675
RightForeArm  5.46613 9.49393 5.33817
RightHand  -0.262483 1.67388 -4.47226
LeftUpLeg  -1.70517 17.4161 6.64364
LeftLeg  59.6013 -2.16455 -3.41165
LeftFoot  10.2643 2.09605 -11.1976
LeftToes  8.00323e-011 7.86695e-011 -1.03868e-010
417
root  -14.3684 38.5095 7.45648 169.949 -60.4561 -176.782
RightUpLeg  -10.2714 -9.69433 8.25471
RightLeg  22.5538 -13.8048 -2.49294
RightFoot  -6.46565 0.471012 -12.0265
RightToes  -5.8209e-011 0 -3.6325e-017
Spine  2.54284 -3.64591 6.10935
Spine1  6.08627 -4.76834 9.74238
HEad  -4.15193 -13.9331 1.92812
LeftShoulder1  -0.220057 4.0823 -31.9141
LeftArm  0.551919 2.42036 -44.577
LeftForeArm  34.5068 -6.50819 -10.5429
LeftHand  -0.150074 8.90986 -3.00324
RightShoulder  -0.941144 -6.19773 28.37
RightArm  11.7235 -6.81044 41.1159
RightForeArm  3.76185 11.2283 5.81794
RightHand  -0.282988 1.79407 -4.74931
LeftUpLeg  -5.25302 16.9181 6.80738
LeftLeg  63.8012 -1.86949 -3.51311
LeftFoot  6.22672 1.62995 -10.7772
LeftToes  8.00323e-011 7.86695e-011 -1.03868e-010
418
root  -15.3 38.6621 7.37041 171.545 -55.4549 -178.149
RightUpLeg  -9.07115 -8.15622 7.89553
RightLeg  22.3489 -10.2799 -1.83765
RightFoot  -7.13663 0.377314 -11.5413
RightToes  -5.8209e-011 0 -3.6325e-017
Spine  2.31927 -3.45951 6.57761
Spine1  6.29855 -4.41818 9.06252
HEad  -3.73885 -15.0975 2.0126
LeftShoulder1  -0.216002 4.06563 -32.3217
LeftArm  -2.20326 6.17934 -43.8677
LeftForeArm  37.3713 -4.58337 -9.83763
LeftHand  -0.272187 8.99827 -6.76309
RightShoulder  -0.945629 -6.23781 28.0247
RightArm  14.7072 -6.38209 41.7666
RightForeArm  2.72509 14.0006 5.85404
RightHand  -0.316633 1.37877 -5.57082
LeftUpLeg  -8.82298 16.1308 6.79988
LeftLeg  64.9913 -1.52299 -2.91745
LeftFoot  5.6302 1.31839 -9.06248
LeftToes  8.00323e-011 7.86695e-011 -1.03868e-010
419
root  -16.222 38.8676 7.31067 173.312 -49.6424 -179.51
RightUpLeg  -7.89992 -6.65254 7.21255
RightLeg  21.4254 -5.9789 -0.792085
RightFoot  -7.29865 0.348137 -11.2098
RightToes  -5.8209e-011 0 -3.6325e-017
Spine  2.0928 -3.12993 7.32264
Spine1  6.33123 -3.85197 7.667
HEad  -3.289 -15.2343 1.78019
LeftShoulder1  -0.220468 4.07723 -32.2783
LeftArm  -3.43801 10.5429 -43.7914
LeftForeArm  35.5844 -3.98094 -9.23259
LeftHand  -0.106409 9.47053 -1.5216
RightShoulder  -0.974062 -6.33616 27.8315
RightArm  18.0099 -5.73383 42.3908
RightForeArm  1.58497 17.1298 5.44875
RightHand  -0.306367 1.97355 -4.99958
LeftUpLeg  -11.6549 15.1374 6.60073
LeftLeg  63.1867 -0.616371 -0.724653
LeftFoot  4.15308 1.01569 -7.61826
LeftToes  8.00323e-011 7.86695e-011 -1.03868e-010
420
root  -17.124 39.0819 7.26412 174.876 -43.0378 179.184
RightUpLeg  -6.89407 -5.51527 6.19906
RightLeg  20.6129 -0.337565 0.368343
RightFoot  -7.25445 0.34708 -11.0507
RightToes  -5.8209e-011 0 -3.6325e-017
Spine  2.49552 -2.54325 7.49992
Spine1  5.73606 -3.14296 6.90198
HEad  -3.54647 -15.0347 0.985593
LeftShoulder1  -0.287621 4.23842 -33.0346
LeftArm  -3.55942 14.5335 -43.1433
LeftForeArm  33.7221 -4.16987 -9.09809
LeftHand  -0.122457 9.46063 -1.87413
RightShoulder  -0.954752 -6.30097 27.566
RightArm  20.7076 -5.23291 42.5183
RightForeArm  -0.697608 20.4078 5.05999
RightHand  -0.373254 3.09767 -5.33646
LeftUpLeg  -13.2927 14.3326 6.41718
LeftLeg  58.8006 1.04638 2.33593
LeftFoot  2.54817 0.53764 -4.5667
LeftToes  8.00323e-011 7.86695e-011 -1.03868e-010
